# AST/ASF file generated using VICON BodyLanguage
# -----------------------------------------------
:version 1.10
:name VICON
:units
  mass 1.0
  length 0.45
  angle deg
:documentation
   .ast/.asf automatically generated from VICON data using
   VICON BodyBuilder and BodyLanguage model FoxedUp or BRILLIANT.MOD
:root
   order TX TY TZ RX RY RZ
   axis XYZ
   position 0 0 0  
   orientation 0 0 0 
:bonedata
  begin
     id 1 
     name lhipjoint
     direction 0.671379 -0.66392 0.329334 
     length 2.38647 
     axis 0 0 0  XYZ
  end
  begin
     id 2 
     name lfemur
     direction 0.34202 -0.939693 0  
     length 6.48179  
     axis 0 0 20  XYZ
    dof rx ry rz
    limits (-160.0 20.0)
           (-70.0 70.0)
           (-60.0 70.0)
  end
  begin
     id 3 
     name ltibia
     direction 0.34202 -0.939693 0   
     length 6.86524   
     axis 0 0 20   XYZ
    dof rx
    limits (-10.0 170.0)
  end
  begin
     id 4 
     name lfoot
     direction 0.204886 -0.562919 0.800715   
     length 1.73031   
     axis -90 7.62852e-016 20   XYZ
    dof rx rz
    limits (-45.0 90.0)
           (-70.0 20.0)
  end
  begin
     id 5 
     name ltoes
     direction 1.53548e-011 -4.21841e-011 1   
     length 0.828161   
     axis -90 7.62852e-016 20   XYZ
    dof rx
    limits (-90.0 20.0)
  end
  begin
     id 6 
     name rhipjoint
     direction -0.662732 -0.670855 0.332775   
     length 2.3618  
     axis 0 0 0  XYZ 
  end
  begin
     id 7 
     name rfemur
     direction -0.34202 -0.939693 0   
     length 6.3025   
     axis 0 0 -20   XYZ
    dof rx ry rz
    limits (-160.0 20.0)
           (-70.0 70.0)
           (-70.0 60.0)
  end
  begin
     id 8 
     name rtibia
     direction -0.34202 -0.939693 0   
     length 6.8732   
     axis 0 0 -20   XYZ
    dof rx
    limits (-10.0 170.0)
 end
 begin
     id 9 
     name rfoot
     direction -0.173856 -0.477665 0.861168   
     length 1.54784  
     axis -90 -7.62852e-016 -20   XYZ
    dof rx rz
    limits (-45.0 90.0)
           (-20.0 70.0)
  end
  begin
     id 10 
     name rtoes
     direction -1.53562e-011 -4.21802e-011 1   
     length 0.759618   
     axis -90 -7.62852e-016 -20   XYZ
    dof rx
    limits (-90.0 20.0)
  end
  begin
     id 11 
     name lowerback
     direction -0.0278357 0.999497 -0.0151789   
     length 1.97203   
     axis 0 0 0   XYZ
    dof rx ry rz
    limits (-20.0 45.0)
           (-30.0 30.0)
           (-30.0 30.0)
  end
  begin
     id 12 
     name upperback
     direction -0.00360622 0.997542 0.0699804   
     length 1.94709   
     axis 0 0 0   XYZ
    dof rx ry rz
    limits (-20.0 45.0)
           (-30.0 30.0)
           (-30.0 30.0)
  end
  begin
     id 13 
     name thorax
     direction 0.00907706 0.997048 0.0762461   
     length 1.95722   
     axis 0 0 0   XYZ
    dof rx ry rz
    limits (-20.0 45.0)
           (-30.0 30.0)
           (-30.0 30.0)
  end
  begin
     id 14 
     name lowerneck
     direction -0.0481835 0.99872 -0.0153927   
     length 1.63078   
     axis 0 0 0   XYZ
    dof rx ry rz
    limits (-20.0 45.0)
           (-30.0 30.0)
           (-30.0 30.0)
  end
  begin
     id 15 
     name upperneck
     direction 0.0859716 0.979226 -0.183644   
     length 1.62591   
     axis 0 0 0   XYZ
    dof rx ry rz
    limits (-20.0 45.0)
           (-30.0 30.0)
           (-30.0 30.0)
  end
  begin
     id 16
     name head
     direction 0.0324821 0.997629 -0.0606773  
     length 1.64811  
     axis 0 0 0   XYZ
    dof rx ry rz
    limits (-20.0 45.0)
           (-30.0 30.0)
           (-30.0 30.0)
  end
  begin
     id 17 
     name lclavicle
     direction 0.939609 0.311019 0.142835  
     length 3.70647  
     axis 0 0 0   XYZ
    dof ry rz
    limits (-20.0 10.0)
           (0.0 20.0)
  end
  begin
     id 18 
     name lhumerus
     direction 1 -4.48963e-011 -1.59838e-027   
     length 4.59207   
     axis 180 -30 -90   XYZ
    dof rx ry rz
    limits (-60.0 90.0)
           (-90.0 90.0)
           (-90.0 90.0)
  end
  begin
     id 19
     name lradius
     direction 1 -4.48957e-011 -1.3483e-026   
     length 2.98109   
     axis 180 -30 -90   XYZ
    dof rx
    limits (-10.0 170.0)
  end
  begin
     id 20
     name lwrist
     direction 1 -4.48954e-011 -3.11579e-026   
     length 1.49055   
     axis 2.00652e-014 90 90   XYZ
    dof ry
    limits (-180.0 0.0)
 end
  begin
     id 21 
     name lhand
     direction 1 -4.4911e-011 -6.23158e-026   
     length 0.480203   
     axis 3.97628e-014 90 90   XYZ
    dof rx rz
    limits (-90.0 90.0)
           (-45.0 45.0)
  end
  begin
     id 22 
     name lfingers
     direction 1 -4.48893e-011 -1.24632e-025   
     length 0.387152   
     axis 7.95256e-014 90 90   XYZ
    dof rx
    limits (0.0 90.0)
  end
  begin
     id 23
     name lthumb
     direction 0.707107 -6.35013e-011 0.707107   
     length 0.555875   
     axis -90 45 2.85299e-015   XYZ
    dof rx rz
    limits (-45.0 45.0)
           (-45.0 45.0)
  end
  begin
     id 24 
     name rclavicle
     direction -0.950396 0.30392 0.0661859   
     length 3.70894  
     axis 0 0 0   XYZ 
    dof ry rz
    limits (-10.0 20.0)
           (-20.0 0.0)
  end
  begin
     id 25 
     name rhumerus
     direction -1 -4.48957e-011 -2.96677e-027  
     length 4.76508   
     axis 180 30 90   XYZ
    dof rx ry rz
    limits (-90.0 60.0)
           (-90.0 90.0)
           (-90.0 90.0)
  end
  begin
     id 26 
     name rradius
     direction -1 -4.48974e-011 -1.44501e-026   
     length 2.78902   
     axis 180 30 90   XYZ
    dof rx
    limits (-10.0 170.0)
  end
  begin
     id 27 
     name rwrist
     direction -1 -4.48978e-011 -3.11579e-026   
     length 1.39451   
     axis 2.00652e-014 -90 -90   XYZ
    dof ry
    limits (-180.0 0.0)
  end
  begin
     id 28
     name rhand
     direction -1 -4.48956e-011 -6.23158e-026   
     length 0.721303   
     axis 3.97628e-014 -90 -90   XYZ
    dof rx rz
    limits (-90.0 90.0)
           (-45.0 45.0)
  end
  begin
     id 29
     name rfingers
     direction -1 -4.4899e-011 -1.24632e-025   
     length 0.581533   
     axis 7.95256e-014 -90 -90   XYZ
    dof rx
    limits (0.0 90.0)
  end
  begin
     id 30
     name rthumb
     direction -0.707107 -6.34911e-011 0.707107   
     length 0.834968   
     axis -90 -45 -2.85299e-015   XYZ
    dof rx rz
    limits (-45.0 45.0)
           (-45.0 45.0)
  end
:hierarchy
  begin
    root lhipjoint rhipjoint lowerback
    lhipjoint lfemur
    lfemur ltibia
    ltibia lfoot
    lfoot ltoes
    rhipjoint rfemur
    rfemur rtibia
    rtibia rfoot
    rfoot rtoes
    lowerback upperback
    upperback thorax
    thorax lowerneck lclavicle rclavicle
    lowerneck upperneck
    upperneck head
    lclavicle lhumerus
    lhumerus lradius
    lradius lwrist
    lwrist lhand lthumb
    lhand lfingers
    rclavicle rhumerus
    rhumerus rradius
    rradius rwrist
    rwrist rhand rthumb
    rhand rfingers
  end

#!OML:ASF I:\salsa\salsa 7_09\Patient 1\Session 1\dancerfemale.ASF
:FULLY-SPECIFIED
:DEGREES
214
root 20.6115 15.6198 -1.58188 -211.395 -82.4057 211.743
lowerback 3.85549 -0.751224 -2.11402
upperback -5.1811 -1.22654 0.261063
thorax -7.53454 -0.508232 1.58909
lowerneck -4.44971 -0.772068 -8.35727
upperneck 11.4505 -2.2733 14.6059
head 4.35812 -0.829676 5.83145
rclavicle -7.25564e-015 1.19271e-014
rhumerus -51.0879 -33.5356 -67.3307
rradius 32.8674
rwrist -2.55846
rhand -0.407668 54.6448
rfingers 7.12502
rthumb 25.1998 26.2885
lclavicle -7.25564e-015 1.19271e-014
lhumerus -46.0007 5.41103 95.0773
lradius 54.5771
lwrist -24.8546
lhand -33.4349 39.0475
lfingers 7.12502
lthumb -6.63406 68.9236
rfemur -17.3992 -2.33125 28.4624
rtibia 32.5423
rfoot -23.949 -1.59572
rtoes -11.1739
lfemur -13.5513 2.05553 -19.3589
ltibia 60.1985
lfoot -14.5378 9.51383
ltoes -17.7646
215
root 20.5258 15.5943 -1.62067 -212.061 -81.8725 212.461
lowerback 3.90379 -0.74115 -1.88353
upperback -5.23731 -1.19181 0.370645
thorax -7.626 -0.499739 1.57316
lowerneck -4.54339 -0.635276 -8.02931
upperneck 11.6637 -2.09887 14.3177
head 4.41282 -0.737262 5.69363
rclavicle 2.66371e-014 2.62396e-014
rhumerus -49.5842 -32.4458 -69.8291
rradius 33.9476
rwrist -3.61371
rhand -0.354699 54.2528
rfingers 7.12502
rthumb 25.2506 25.9036
lclavicle 2.66371e-014 2.62396e-014
lhumerus -46.3676 7.67412 92.9492
lradius 51.5397
lwrist -26.5303
lhand -32.4497 38.8454
lfingers 7.12502
lthumb -5.68294 68.7492
rfemur -16.9474 -2.44073 29.0026
rtibia 32.2936
rfoot -24.1186 -0.999503
rtoes -10.0525
lfemur -16.3741 4.04179 -18.5309
ltibia 64.4861
lfoot -11.1355 9.14538
ltoes -12.9646
216
root 20.4398 15.5775 -1.65052 -214.113 -81.2345 214.407
lowerback 4.10693 -0.736881 -1.33196
upperback -5.19196 -1.13236 0.54291
thorax -7.70323 -0.494558 1.44182
lowerneck -4.50921 -0.513004 -7.60533
upperneck 11.5983 -1.90714 13.8966
head 4.3602 -0.646194 5.49219
rclavicle -1.51076e-014 1.27222e-014
rhumerus -47.9214 -31.1549 -72.3916
rradius 35.0734
rwrist -4.63521
rhand -0.259451 54.0164
rfingers 7.12502
rthumb 25.3418 25.6801
lclavicle -1.51076e-014 1.27222e-014
lhumerus -46.7547 10.2439 90.5275
lradius 48.4361
lwrist -28.6029
lhand -32.4796 40.176
lfingers 7.12502
lthumb -5.71183 70.0791
rfemur -16.1402 -2.55234 29.7156
rtibia 31.7824
rfoot -24.2414 -0.468652
rtoes -8.53844
lfemur -18.8318 6.11728 -17.503
ltibia 68.3257
lfoot -8.92069 9.13809
ltoes -8.99481
217
root 20.3542 15.5747 -1.6759 -216.753 -80.4946 216.844
lowerback 4.49181 -0.74463 -0.622294
upperback -5.12139 -1.06758 0.800544
thorax -7.86082 -0.492225 1.31384
lowerneck -4.48184 -0.36075 -7.1423
upperneck 11.5274 -1.65972 13.3546
head 4.30216 -0.530673 5.24879
rclavicle 3.18055e-015 -1.90833e-014
rhumerus -46.2691 -29.6465 -74.8651
rradius 36.2452
rwrist -5.63209
rhand 0.00253764 53.9438
rfingers 7.12502
rthumb 25.5928 25.6433
lclavicle 3.18055e-015 -1.90833e-014
lhumerus -47.3519 13.0872 87.7848
lradius 45.461
lwrist -31.0153
lhand -31.8932 39.5794
lfingers 7.12502
lthumb -5.14562 69.4969
rfemur -15.0591 -2.60696 30.5574
rtibia 30.9904
rfoot -23.9654 -0.00535812
rtoes -7.99599
lfemur -20.9538 8.25228 -16.3189
ltibia 71.4969
lfoot -8.42198 9.02613
ltoes -8.51301
218
root 20.265 15.5983 -1.70116 -217.949 -79.786 217.838
lowerback 4.89711 -0.701268 -0.116737
upperback -5.05462 -0.948777 1.01623
thorax -8.03341 -0.453747 1.25021
lowerneck -4.47784 -0.206211 -6.66229
upperneck 11.4737 -1.40327 12.7478
head 4.25473 -0.411522 4.98378
rclavicle -6.55989e-015 -4.77083e-015
rhumerus -44.6979 -28.0744 -77.182
rradius 37.4724
rwrist -6.4698
rhand 0.138752 53.9173
rfingers 7.12502
rthumb 25.7233 25.6357
lclavicle -6.55989e-015 -4.77083e-015
lhumerus -48.2499 15.9257 84.7562
lradius 42.6549
lwrist -33.4008
lhand -30.6123 41.8479
lfingers 7.12502
lthumb -3.90877 71.7918
rfemur -13.8624 -2.52941 31.195
rtibia 30.0009
rfoot -23.82 0.415152
rtoes -7.68454
lfemur -22.7492 10.2587 -15.3759
ltibia 73.7447
lfoot -9.20431 10.2011
ltoes -7.20294
219
root 20.1761 15.6092 -1.72334 -217.742 -79.2549 217.443
lowerback 5.22267 -0.658835 0.081973
upperback -4.98227 -0.859542 1.16517
thorax -8.14881 -0.41489 1.28969
lowerneck -4.55045 -0.0226894 -6.5765
upperneck 11.5447 -1.14553 12.6206
head 4.26165 -0.282729 4.94253
rclavicle 3.08116e-014 2.54444e-014
rhumerus -43.1692 -26.3947 -79.3716
rradius 38.7064
rwrist -7.19737
rhand 0.0495655 53.8812
rfingers 7.12502
rthumb 25.6378 25.5873
lclavicle 3.08116e-014 2.54444e-014
lhumerus -49.4772 18.6938 81.496
lradius 40.082
lwrist -35.5826
lhand -31.1384 42.089
lfingers 7.12502
lthumb -4.41676 72.0229
rfemur -12.7472 -2.45865 31.5002
rtibia 29.0719
rfoot -23.7479 0.826824
rtoes -7.56872
lfemur -24.4187 11.7944 -14.852
ltibia 75.2081
lfoot -10.1325 11.105
ltoes -8.00279
220
root 20.0863 15.6188 -1.74153 -216.941 -78.8985 216.476
lowerback 5.46392 -0.666897 0.0557913
upperback -4.90372 -0.859087 1.3042
thorax -8.20325 -0.407217 1.45395
lowerneck -4.45904 0.157692 -6.34503
upperneck 11.3967 -0.841931 12.146
head 4.17098 -0.148246 4.76367
rclavicle -6.4605e-015 2.62396e-014
rhumerus -41.7033 -24.5409 -81.4555
rradius 40.0049
rwrist -8.03565
rhand -0.0730969 53.7502
rfingers 7.12502
rthumb 25.5204 25.4394
lclavicle -6.4605e-015 2.62396e-014
lhumerus -51.0027 21.005 78.3829
lradius 38.0408
lwrist -37.0034
lhand -31.7282 42.3715
lfingers 7.12502
lthumb -4.98626 72.2928
rfemur -11.768 -2.49736 31.5657
rtibia 28.3369
rfoot -23.7643 1.2663
rtoes -7.31388
lfemur -25.9638 12.8084 -14.591
ltibia 75.8653
lfoot -11.5641 11.4666
ltoes -7.01326
221
root 19.9948 15.6244 -1.75772 -215.749 -78.701 215.238
lowerback 5.59611 -0.682024 -0.161316
upperback -4.86831 -0.888752 1.43402
thorax -8.237 -0.404149 1.71849
lowerneck -4.47736 0.306891 -6.18053
upperneck 11.3729 -0.58681 11.6917
head 4.14313 -0.0340989 4.60342
rclavicle -1.19271e-015 1.74931e-014
rhumerus -40.3866 -22.6244 -83.3572
rradius 41.4774
rwrist -9.10281
rhand -0.157852 53.3851
rfingers 7.12502
rthumb 25.4392 25.0627
lclavicle -1.19271e-015 1.74931e-014
lhumerus -52.8144 22.7826 75.4164
lradius 36.5247
lwrist -38.0569
lhand -31.5638 43.7861
lfingers 7.12502
lthumb -4.82752 73.7111
rfemur -11.1313 -2.56687 31.4706
rtibia 27.9521
rfoot -23.9285 1.64539
rtoes -7.00379
lfemur -27.5204 13.4108 -14.5082
ltibia 75.8116
lfoot -13.1501 11.4251
ltoes -9.06866
222
root 19.8959 15.6305 -1.77703 -214.143 -78.6569 213.801
lowerback 5.48458 -0.646843 -0.57428
upperback -4.90773 -0.875994 1.51719
thorax -8.20814 -0.371852 2.03539
lowerneck -4.67167 0.395374 -6.11736
upperneck 11.5423 -0.446666 11.455
head 4.2148 0.0358876 4.52847
rclavicle -2.87244e-014 -5.56597e-015
rhumerus -39.3547 -20.8307 -85.0311
rradius 43.2387
rwrist -10.3139
rhand -0.189425 52.9669
rfingers 7.12502
rthumb 25.4089 24.6402
lclavicle -2.87244e-014 -5.56597e-015
lhumerus -54.6887 23.9108 72.6556
lradius 35.4054
lwrist -38.8063
lhand -31.1811 45.4926
lfingers 7.12502
lthumb -4.45801 75.4257
rfemur -10.7868 -2.5191 31.2596
rtibia 27.7362
rfoot -24.2235 1.76813
rtoes -7.4947
lfemur -29.106 13.5822 -14.5889
ltibia 75.0333
lfoot -14.7786 11.2644
ltoes -13.7327
223
root 19.7901 15.6379 -1.80137 -212.692 -78.7776 212.643
lowerback 5.17664 -0.61713 -1.12215
upperback -4.96751 -0.883834 1.58133
thorax -8.08459 -0.344074 2.40717
lowerneck -4.80174 0.459634 -5.97562
upperneck 11.5587 -0.329878 11.1839
head 4.23243 0.0923117 4.42555
rclavicle -5.04913e-014 -2.38542e-015
rhumerus -38.5515 -19.2127 -86.5248
rradius 45.2012
rwrist -11.4397
rhand -0.215659 52.7849
rfingers 7.12502
rthumb 25.3838 24.4546
lclavicle -5.04913e-014 -2.38542e-015
lhumerus -56.2778 24.1583 70.5939
lradius 34.6456
lwrist -38.7027
lhand -30.906 45.5714
lfingers 7.12502
lthumb -4.19236 75.5099
rfemur -10.555 -2.25741 31.035
rtibia 27.6159
rfoot -24.6551 1.46438
rtoes -8.7349
lfemur -30.5984 13.2567 -14.6989
ltibia 73.5785
lfoot -16.4275 11.1945
ltoes -15.0149
224
root 19.6824 15.6459 -1.82238 -212.292 -79.1386 212.463
lowerback 4.95163 -0.675449 -1.64928
upperback -4.99779 -1.00281 1.66868
thorax -7.9717 -0.37127 2.80593
lowerneck -4.71795 0.529053 -5.78827
upperneck 11.2966 -0.184633 10.8484
head 4.12806 0.152783 4.2902
rclavicle -8.54774e-015 -1.78906e-014
rhumerus -37.8531 -17.6405 -87.8357
rradius 47.2602
rwrist -12.3847
rhand -0.238562 52.7234
rfingers 7.12502
rthumb 25.3619 24.39
lclavicle -8.54774e-015 -1.78906e-014
lhumerus -57.7439 23.9097 69.0548
lradius 34.2622
lwrist -38.6091
lhand -30.9972 44.5637
lfingers 7.12502
lthumb -4.28044 74.5005
rfemur -10.2409 -1.96919 30.8515
rtibia 27.5339
rfoot -24.8783 0.82859
rtoes -8.83253
lfemur -31.8379 12.4019 -14.7071
ltibia 71.521
lfoot -17.884 11.3744
ltoes -17.1465
225
root 19.5782 15.6573 -1.82744 -211.541 -79.3776 212.008
lowerback 4.82163 -0.666876 -1.98537
upperback -5.11105 -1.01865 1.73167
thorax -8.01231 -0.357426 3.06338
lowerneck -4.70303 0.565364 -5.63495
upperneck 11.1729 -0.102748 10.5838
head 4.08275 0.186866 4.183
rclavicle 2.89729e-014 -1.31198e-014
rhumerus -37.3707 -16.0246 -88.9898
rradius 49.5827
rwrist -13.3157
rhand -0.203265 52.5494
rfingers 7.12502
rthumb 25.3957 24.2208
lclavicle 2.89729e-014 -1.31198e-014
lhumerus -59.1753 23.3991 67.7521
lradius 34.1234
lwrist -38.6403
lhand -31.5569 43.4407
lfingers 7.12502
lthumb -4.8209 73.3658
rfemur -10.0219 -1.75647 30.6118
rtibia 27.3269
rfoot -24.7091 0.463398
rtoes -7.67292
lfemur -32.9693 11.4095 -14.6789
ltibia 68.9408
lfoot -19.0195 11.9858
ltoes -19.3803
